<?xml version="1.0" encoding="UTF-8" standalone="no"?>
<svg xmlns:dc="http://purl.org/dc/elements/1.1/" xmlns:cc="http://creativecommons.org/ns#" xmlns:rdf="http://www.w3.org/1999/02/22-rdf-syntax-ns#" xmlns:svg="http://www.w3.org/2000/svg" xmlns="http://www.w3.org/2000/svg" width="2.8222151mm" height="3.3866467mm" viewBox="0 0 9.9999754 11.999929" id="svg2" version="1.1">
    <defs id="defs4" />
    <metadata id="metadata7">
        <rdf:RDF>
            <cc:Work rdf:about="">
                <dc:format>image/svg+xml</dc:format>
                <dc:type rdf:resource="http://purl.org/dc/dcmitype/StillImage" />
                <dc:title/>
            </cc:Work>
        </rdf:RDF>
    </metadata>
    <g id="group_base"><path id="base" d="M 1.0,-6.938732e-05 0.0,0.99993061 0.0,7.9999306 0.00650598,8.2057706 0.02581447,8.4089106 0.05761131,8.6090906 0.10158235,8.8060706 0.15741345,8.9995906 0.22479035,9.1894106 0.30339895,9.3752606 0.39292515,9.5569106 0.49305471,9.7341006 0.6034735,9.9065706 0.72386735,10.074081 0.8539221,10.236371 0.99332358,10.393191 1.1417577,10.544301 1.2989101,10.689441 1.4644669,10.828361 1.6381137,10.960801 1.8195365,11.086521 2.008421,11.205271 2.2044532,11.316791 2.4073188,11.420841 2.6167038,11.517161 2.8322939,11.605491 3.0537749,11.685591 3.2808328,11.757211 3.5131534,11.820101 3.7504225,11.874001 3.9923259,11.918671 4.2385496,11.953851 4.4887792,11.979291 4.7427008,11.994741 5.0,11.999931 5.2572993,11.994731 5.5112209,11.979281 5.7614507,11.953841 6.0076743,11.918661 6.2495778,11.873991 6.4868469,11.820091 6.7191676,11.757201 6.9462255,11.685581 7.1677066,11.605481 7.3832967,11.517151 7.5926816,11.420831 7.7955473,11.316791 7.9915794,11.205261 8.180464,11.086521 8.3618867,10.960801 8.5355335,10.828351 8.7010902,10.689431 8.8582427,10.544301 9.0066767,10.393191 9.1460781,10.236361 9.2761329,10.074071 9.3965267,9.9065606 9.5069454,9.7340906 9.607075,9.5569006 9.696601,9.3752606 9.77521,9.1894006 9.842587,8.9995906 9.898418,8.8060606 9.942389,8.6090806 9.974186,8.4089006 9.993494,8.2057606 10.0,7.9999306 10.0,0.99993061 9.0,-6.938732e-05 4.9335938,-6.938732e-05 7.7441406,7.5722006 8.9785156,7.1503206 9.4453125,8.5624306 6.7207031,9.4218106 5.0117188,4.8124306 2.4257812,8.9999306 0.57421875,8.9999306 4.2617188,2.5702406 3.7714844,1.3554006 2.6328125,1.3554006 2.6328125,-6.938732e-05 Z" style="fill:#e32124;fill-opacity:1" /></g><g id="group_path_0"><path id="path_0" d="M 0.0,4.498623693485762 0.0,7.9999306 0.00650598,8.2057706 0.02581447,8.4089106 0.05761131,8.6090906 0.10158235,8.8060706 0.15741345,8.9995906 0.22479035,9.1894106 0.30339895,9.3752606 0.39292515,9.5569106 0.49305471,9.7341006 0.6034735,9.9065706 0.72386735,10.074081 0.8539221,10.236371 0.99332358,10.393191 1.1417577,10.544301 1.2989101,10.689441 1.4644669,10.828361 1.6381137,10.960801 1.8195365,11.086521 2.008421,11.205271 2.2044532,11.316791 2.4073188,11.420841 2.6167038,11.517161 2.8322939,11.605491 3.0537749,11.685591 3.2808328,11.757211 3.5131534,11.820101 3.7504225,11.874001 3.9923259,11.918671 4.2385496,11.953851 4.4887792,11.979291 4.7427008,11.994741 5.0,11.999931 5.2572993,11.994731 5.5112209,11.979281 5.7614507,11.953841 6.0076743,11.918661 6.2495778,11.873991 6.4868469,11.820091 6.7191676,11.757201 6.9462255,11.685581 7.1677066,11.605481 7.3832967,11.517151 7.5926816,11.420831 7.7955473,11.316791 7.9915794,11.205261 8.180464,11.086521 8.3618867,10.960801 8.5355335,10.828351 8.7010902,10.689431 8.8582427,10.544301 9.0066767,10.393191 9.1460781,10.236361 9.2761329,10.074071 9.3965267,9.9065606 9.5069454,9.7340906 9.607075,9.5569006 9.696601,9.3752606 9.77521,9.1894006 9.842587,8.9995906 9.898418,8.8060606 9.942389,8.6090806 9.974186,8.4089006 9.993494,8.2057606 10.0,7.9999306 10.0,0.99993061 9.0,-6.938732e-05 4.9335938,-6.938732e-05 7.7441406,7.5722006 8.9785156,7.1503206 9.4453125,8.5624306 6.7207031,9.4218106 5.0117188,4.8124306 2.4257812,8.9999306 0.57421875,8.9999306 4.2617188,2.5702406 3.7714844,1.3554006 3.1432232442084462,1.3554006 Z" style="fill:#f07f20;fill-opacity:1" /></g><g id="group_path_1"><path id="path_1" d="M 0.0345729924452183,8.464050702698376 0.05761131,8.6090906 0.10158235,8.8060706 0.15741345,8.9995906 0.22479035,9.1894106 0.30339895,9.3752606 0.39292515,9.5569106 0.49305471,9.7341006 0.6034735,9.9065706 0.72386735,10.074081 0.8539221,10.236371 0.99332358,10.393191 1.1417577,10.544301 1.2989101,10.689441 1.4644669,10.828361 1.6381137,10.960801 1.8195365,11.086521 2.008421,11.205271 2.2044532,11.316791 2.4073188,11.420841 2.6167038,11.517161 2.8322939,11.605491 3.0537749,11.685591 3.2808328,11.757211 3.5131534,11.820101 3.7504225,11.874001 3.9923259,11.918671 4.2385496,11.953851 4.4887792,11.979291 4.7427008,11.994741 5.0,11.999931 5.2572993,11.994731 5.5112209,11.979281 5.7614507,11.953841 6.0076743,11.918661 6.2495778,11.873991 6.4868469,11.820091 6.7191676,11.757201 6.9462255,11.685581 7.1677066,11.605481 7.3832967,11.517151 7.5926816,11.420831 7.7955473,11.316791 7.9915794,11.205261 8.180464,11.086521 8.3618867,10.960801 8.5355335,10.828351 8.7010902,10.689431 8.8582427,10.544301 9.0066767,10.393191 9.1460781,10.236361 9.2761329,10.074071 9.3965267,9.9065606 9.5069454,9.7340906 9.607075,9.5569006 9.696601,9.3752606 9.77521,9.1894006 9.842587,8.9995906 9.898418,8.8060606 9.942389,8.6090806 9.974186,8.4089006 9.993494,8.2057606 10.0,7.9999306 10.0,0.99993061 9.0,-6.938732e-05 8.498693488331986,-6.938732e-05 5.898638197446075,2.5999857788890166 7.7441406,7.5722006 8.9785156,7.1503206 9.4453125,8.5624306 6.7207031,9.4218106 5.0117188,4.8124306 2.4257812,8.9999306 0.57421875,8.9999306 2.02050825846492,6.4781155319075125 Z" style="fill:#fbbd1c;fill-opacity:1" /></g><g id="group_path_2"><path id="path_2" d="M 1.5812174235720917,10.917406345735627 1.6381137,10.960801 1.8195365,11.086521 2.008421,11.205271 2.2044532,11.316791 2.4073188,11.420841 2.6167038,11.517161 2.8322939,11.605491 3.0537749,11.685591 3.2808328,11.757211 3.5131534,11.820101 3.7504225,11.874001 3.9923259,11.918671 4.2385496,11.953851 4.4887792,11.979291 4.7427008,11.994741 5.0,11.999931 5.2572993,11.994731 5.5112209,11.979281 5.7614507,11.953841 6.0076743,11.918661 6.2495778,11.873991 6.4868469,11.820091 6.7191676,11.757201 6.9462255,11.685581 7.1677066,11.605481 7.3832967,11.517151 7.5926816,11.420831 7.7955473,11.316791 7.9915794,11.205261 8.180464,11.086521 8.3618867,10.960801 8.5355335,10.828351 8.7010902,10.689431 8.8582427,10.544301 9.0066767,10.393191 9.1460781,10.236361 9.2761329,10.074071 9.3965267,9.9065606 9.5069454,9.7340906 9.607075,9.5569006 9.696601,9.3752606 9.77521,9.1894006 9.842587,8.9995906 9.898418,8.8060606 9.942389,8.6090806 9.974186,8.4089006 9.993494,8.2057606 10.0,7.9999306 10.0,2.498624173002081 6.981406734752303,5.517217293503305 7.7441406,7.5722006 8.9785156,7.1503206 9.4453125,8.5624306 6.7207031,9.4218106 5.735107770829797,6.763516197663743 Z" style="fill:#731610;fill-opacity:1" /></g><g id="group_path_3"><path id="path_3" d="M 4.517580480303335,11.981043429807785 4.7427008,11.994741 5.0,11.999931 5.2572993,11.994731 5.5112209,11.979281 5.7614507,11.953841 6.0076743,11.918661 6.2495778,11.873991 6.4868469,11.820091 6.7191676,11.757201 6.9462255,11.685581 7.1677066,11.605481 7.3832967,11.517151 7.5926816,11.420831 7.7955473,11.316791 7.9915794,11.205261 8.180464,11.086521 8.3618867,10.960801 8.5355335,10.828351 8.7010902,10.689431 8.8582427,10.544301 9.0066767,10.393191 9.1460781,10.236361 9.2761329,10.074071 9.3965267,9.9065606 9.5069454,9.7340906 9.607075,9.5569006 9.696601,9.3752606 9.77521,9.1894006 9.842587,8.9995906 9.898418,8.8060606 9.942389,8.6090806 9.974186,8.4089006 9.993494,8.2057606 10.0,7.9999306 10.0,6.498624173002081 9.070385962840481,7.428238165585093 9.4453125,8.5624306 7.24088661292513,9.257737427772966 Z" style="fill:#e32124;fill-opacity:1" /></g>
</svg>